Coordinates
version=1
nRows=15
nColumns=34
inDegrees=no

Units are S.I. units (second, meters, Newtons, ...)
If the header above contains a line with 'inDegrees', this indicates whether rotational values are in degrees (yes) or radians (no).

endheader
time	pelvis_tilt	pelvis_list	pelvis_rotation	pelvis_tx	pelvis_ty	pelvis_tz	hip_flexion_r	hip_adduction_r	hip_rotation_r	knee_angle_r	ankle_angle_r	subtalar_angle_r	mtp_angle_r	hip_flexion_l	hip_adduction_l	hip_rotation_l	knee_angle_l	ankle_angle_l	subtalar_angle_l	mtp_angle_l	lumbar_extension	lumbar_bending	lumbar_rotation	arm_flex_r	arm_add_r	arm_rot_r	elbow_flex_r	pro_sup_r	arm_flex_l	arm_add_l	arm_rot_l	elbow_flex_l	pro_sup_l
3.25	-0.13381	0.00848727	-0.0781794	-0.324542	0.877006	-0.647539	0.953643	-0.236492	-0.107511	1.26627	0.535058	0.0536653	-0.0323834	0.941086	-0.264982	-0.13239	1.31348	0.551247	0.0650515	-0.0323393	-0.492163	-0.00343593	0.0684347	1.03036	-0.301184	0.0751272	1.30409	1.81696	0.991953	-0.277867	0.0777777	1.4305	1.70805
3.26	-0.142665	0.0107543	-0.0772329	-0.327925	0.866994	-0.648173	0.987035	-0.240541	-0.0999421	1.29802	0.543843	0.0547721	-0.0323834	0.973445	-0.265333	-0.126889	1.34445	0.56035	0.0657037	-0.0323393	-0.494179	-0.00456297	0.0660543	1.04781	-0.30617	0.0732817	1.33203	1.81712	1.00838	-0.282209	0.0759368	1.45749	1.70676
3.27	-0.15144	0.0131341	-0.0761736	-0.331248	0.856797	-0.648834	1.02061	-0.244674	-0.0920712	1.32979	0.55238	0.0561362	-0.0323834	1.00581	-0.265519	-0.121591	1.37538	0.569362	0.0665306	-0.0323392	-0.496234	-0.00569172	0.0635211	1.06497	-0.311195	0.0714333	1.35946	1.81729	1.02433	-0.286413	0.0736246	1.48407	1.70713
3.28	-0.160026	0.0155944	-0.0750055	-0.334507	0.846439	-0.64952	1.0542	-0.248873	-0.0839437	1.36153	0.560659	0.0577722	-0.0323833	1.03806	-0.265549	-0.11644	1.40626	0.578251	0.0674987	-0.0323392	-0.498451	-0.00680153	0.0608558	1.08183	-0.316271	0.0696462	1.38633	1.81741	1.03979	-0.290492	0.0709326	1.51024	1.70881
3.29	-0.168308	0.0180646	-0.0737716	-0.337696	0.835949	-0.650223	1.08763	-0.253052	-0.0756239	1.39316	0.568677	0.0596539	-0.0323833	1.07006	-0.265512	-0.11137	1.43706	0.58699	0.0686196	-0.0323392	-0.500945	-0.00785293	0.0581302	1.0984	-0.321383	0.0679684	1.41255	1.81742	1.05473	-0.294453	0.0679566	1.53599	1.71134
3.3	-0.176193	0.0204428	-0.07255	-0.340808	0.825353	-0.650932	1.12072	-0.257066	-0.0671951	1.42461	0.576434	0.061713	-0.0323833	1.10171	-0.265554	-0.106306	1.46777	0.595556	0.0699343	-0.0323391	-0.503792	-0.00878942	0.0554539	1.11466	-0.32648	0.0664175	1.43802	1.81728	1.06909	-0.298294	0.064774	1.56131	1.71422
3.31	-0.183628	0.0226159	-0.0714389	-0.343833	0.814674	-0.651632	1.15334	-0.260749	-0.058752	1.4558	0.583931	0.0638549	-0.0323833	1.13294	-0.265845	-0.101169	1.4984	0.603932	0.0714839	-0.0323391	-0.507013	-0.00954699	0.0529495	1.13055	-0.331461	0.064967	1.46259	1.81702	1.08276	-0.30202	0.0614308	1.58618	1.71704
3.32	-0.190617	0.0244806	-0.0705367	-0.346765	0.80393	-0.652313	1.18541	-0.263941	-0.0503896	1.48665	0.591161	0.0659828	-0.0323833	1.16377	-0.266532	-0.0958753	1.52891	0.612108	0.0732812	-0.0323391	-0.510559	-0.0100666	0.0507269	1.14601	-0.336192	0.0635432	1.48615	1.81672	1.09563	-0.30564	0.0579387	1.61056	1.71959
3.33	-0.197213	0.0259629	-0.0699203	-0.349596	0.793139	-0.652967	1.21691	-0.266536	-0.0421898	1.51707	0.598109	0.0680248	-0.0323833	1.19423	-0.267699	-0.0903503	1.55929	0.620077	0.0752913	-0.032339	-0.51433	-0.0103052	0.048862	1.16094	-0.340535	0.0620413	1.50858	1.81651	1.10757	-0.309161	0.0542791	1.63441	1.72182
3.34	-0.203499	0.0270319	-0.0696248	-0.352324	0.782314	-0.653592	1.24789	-0.268498	-0.0342087	1.54699	0.604751	0.0699538	-0.0323833	1.22437	-0.269338	-0.0845339	1.58946	0.627837	0.0774277	-0.032339	-0.518202	-0.0102432	0.0473808	1.17523	-0.344396	0.0603593	1.52983	1.81657	1.11849	-0.312584	0.0504171	1.65768	1.7239
3.35	-0.209568	0.0277059	-0.0696303	-0.354949	0.771473	-0.654193	1.2784	-0.269885	-0.0264663	1.57636	0.611069	0.0717961	-0.0323832	1.25427	-0.271339	-0.0783936	1.61933	0.635377	0.079563	-0.032339	-0.522065	-0.00988759	0.0462502	1.18875	-0.347752	0.0584296	1.54993	1.81704	1.12836	-0.315898	0.0463174	1.68033	1.72607
3.36	-0.215489	0.0280504	-0.0698619	-0.357471	0.760637	-0.654783	1.30851	-0.270836	-0.0189412	1.60514	0.617052	0.0736219	-0.0323832	1.28395	-0.273507	-0.0719336	1.64881	0.642678	0.0815537	-0.0323389	-0.525853	-0.00927082	0.0453778	1.20142	-0.350652	0.0562296	1.56897	1.81797	1.13719	-0.319086	0.0419571	1.70233	1.72856
3.37	-0.221289	0.0281639	-0.0702049	-0.359896	0.749832	-0.655372	1.33823	-0.271544	-0.0115755	1.63328	0.622703	0.0755216	-0.0323832	1.31337	-0.2756	-0.0651961	1.67779	0.649704	0.0832755	-0.0323389	-0.529558	-0.00844632	0.0446269	1.21313	-0.353185	0.0537695	1.58706	1.81929	1.14505	-0.322123	0.0373333	1.72365	1.73138
3.38	-0.226939	0.028154	-0.0705335	-0.362226	0.739091	-0.655974	1.36753	-0.272206	-0.00429209	1.66077	0.628036	0.0775766	-0.0323832	1.34245	-0.27739	-0.0582513	1.70616	0.656413	0.0846568	-0.0323389	-0.533237	-0.00747904	0.0438497	1.22385	-0.355444	0.0510713	1.60432	1.82085	1.15204	-0.324976	0.0324525	1.74424	1.73445
3.39	-0.23236	0.0281103	-0.0707436	-0.364461	0.728451	-0.656592	1.39632	-0.272975	0.00298132	1.6876	0.633072	0.0798357	-0.0323832	1.37105	-0.278713	-0.0511759	1.73386	0.662757	0.085698	-0.0323389	-0.536995	-0.00643294	0.0429302	1.23354	-0.357512	0.0481592	1.62083	1.82244	1.1583	-0.327604	0.0273283	1.76402	1.73767
